<svg xmlns="http://www.w3.org/2000/svg" style="display: none;">
  <symbol id="01" viewBox="0 0 40 28">
    <path
      d="M10.5613 24.9647C11.2546 24.9647 11.9079 24.9513 12.5212 24.9247C13.1613 24.8713 13.7479 24.7513 14.2812 24.5647C14.8413 24.3513 15.3346 24.018 15.7613 23.5647C16.2146 23.1113 16.6012 22.4847 16.9212 21.6847C17.2412 20.858 17.4813 19.818 17.6413 18.5647C17.8279 17.2847 17.9213 15.7247 17.9213 13.8847C17.9213 11.138 17.7212 9.018 17.3212 7.52467C16.9479 6.00467 16.4279 4.898 15.7613 4.20467C15.0946 3.51134 14.3079 3.11134 13.4013 3.00467C12.5213 2.87134 11.5746 2.80467 10.5613 2.80467C9.52125 2.80467 8.54792 2.87134 7.64125 3.00467C6.76125 3.11134 5.98792 3.51134 5.32125 4.20467C4.68125 4.898 4.17458 6.00467 3.80125 7.52467C3.42792 9.018 3.24125 11.138 3.24125 13.8847C3.24125 15.7247 3.32125 17.2847 3.48125 18.5647C3.66792 19.818 3.90792 20.858 4.20125 21.6847C4.52125 22.4847 4.89458 23.1113 5.32125 23.5647C5.77458 24.018 6.26792 24.3513 6.80125 24.5647C7.33458 24.7513 7.92125 24.8713 8.56125 24.9247C9.20125 24.9513 9.86792 24.9647 10.5613 24.9647ZM10.5613 27.2047C9.14792 27.2047 7.81458 27.058 6.56125 26.7647C5.30792 26.4447 4.21458 25.818 3.28125 24.8847C2.34792 23.9247 1.61458 22.578 1.08125 20.8447C0.547917 19.0847 0.28125 16.7647 0.28125 13.8847C0.28125 11.0047 0.547917 8.698 1.08125 6.96467C1.61458 5.20467 2.34792 3.858 3.28125 2.92467C4.21458 1.96467 5.30792 1.338 6.56125 1.04467C7.81458 0.724669 9.14792 0.564669 10.5613 0.564669C12.0013 0.564669 13.3479 0.724669 14.6012 1.04467C15.8546 1.338 16.9479 1.96467 17.8813 2.92467C18.8146 3.858 19.5479 5.20467 20.0813 6.96467C20.6146 8.698 20.8813 11.0047 20.8813 13.8847C20.8813 16.7647 20.6146 19.0847 20.0813 20.8447C19.5479 22.578 18.8146 23.9247 17.8813 24.8847C16.9479 25.818 15.8546 26.4447 14.6012 26.7647C13.3479 27.058 12.0013 27.2047 10.5613 27.2047Z" />
    <path d="M23.8506 26.7647V24.4847H29.9706V3.40467L25.0906 4.68467L24.4906 2.52467L32.8506 0.284668V24.4847H39.0906V26.7647H23.8506Z" />
    <path fill-rule="evenodd" clip-rule="evenodd" d="M17.0463 3.86818L5.63306 25.3323L3.86719 24.3933L15.2805 2.9292L17.0463 3.86818Z" />
  </symbol>
  <symbol id="02" viewBox="0 0 44 28">
    <path
      d="M10.5613 24.9647C11.2546 24.9647 11.9079 24.9514 12.5212 24.9247C13.1613 24.8714 13.7479 24.7514 14.2812 24.5647C14.8413 24.3514 15.3346 24.018 15.7613 23.5647C16.2146 23.1114 16.6012 22.4847 16.9212 21.6847C17.2412 20.858 17.4813 19.818 17.6413 18.5647C17.8279 17.2847 17.9213 15.7247 17.9213 13.8847C17.9213 11.138 17.7212 9.01803 17.3212 7.5247C16.9479 6.0047 16.4279 4.89803 15.7613 4.2047C15.0946 3.51136 14.3079 3.11136 13.4013 3.0047C12.5213 2.87136 11.5746 2.8047 10.5613 2.8047C9.52125 2.8047 8.54792 2.87136 7.64125 3.0047C6.76125 3.11136 5.98792 3.51136 5.32125 4.2047C4.68125 4.89803 4.17458 6.0047 3.80125 7.5247C3.42792 9.01803 3.24125 11.138 3.24125 13.8847C3.24125 15.7247 3.32125 17.2847 3.48125 18.5647C3.66792 19.818 3.90792 20.858 4.20125 21.6847C4.52125 22.4847 4.89458 23.1114 5.32125 23.5647C5.77458 24.018 6.26792 24.3514 6.80125 24.5647C7.33458 24.7514 7.92125 24.8714 8.56125 24.9247C9.20125 24.9514 9.86792 24.9647 10.5613 24.9647ZM10.5613 27.2047C9.14792 27.2047 7.81458 27.058 6.56125 26.7647C5.30792 26.4447 4.21458 25.818 3.28125 24.8847C2.34792 23.9247 1.61458 22.578 1.08125 20.8447C0.547917 19.0847 0.28125 16.7647 0.28125 13.8847C0.28125 11.0047 0.547917 8.69803 1.08125 6.9647C1.61458 5.2047 2.34792 3.85803 3.28125 2.9247C4.21458 1.9647 5.30792 1.33803 6.56125 1.0447C7.81458 0.724698 9.14792 0.564697 10.5613 0.564697C12.0013 0.564697 13.3479 0.724698 14.6012 1.0447C15.8546 1.33803 16.9479 1.9647 17.8813 2.9247C18.8146 3.85803 19.5479 5.2047 20.0813 6.9647C20.6146 8.69803 20.8813 11.0047 20.8813 13.8847C20.8813 16.7647 20.6146 19.0847 20.0813 20.8447C19.5479 22.578 18.8146 23.9247 17.8813 24.8847C16.9479 25.818 15.8546 26.4447 14.6012 26.7647C13.3479 27.058 12.0013 27.2047 10.5613 27.2047Z" />
    <path
      d="M25.2775 26.7647V20.0847C25.2775 19.0447 25.4242 18.1647 25.7175 17.4447C26.0108 16.7247 26.3975 16.1247 26.8775 15.6447C27.3842 15.138 27.9708 14.738 28.6375 14.4447C29.3042 14.1247 30.0108 13.858 30.7575 13.6447C31.5308 13.4314 32.3175 13.2447 33.1175 13.0847C33.9442 12.898 34.7575 12.698 35.5575 12.4847C36.4908 12.2447 37.2642 12.0314 37.8775 11.8447C38.4908 11.6314 38.9842 11.378 39.3575 11.0847C39.7308 10.7647 39.9975 10.3647 40.1575 9.8847C40.3175 9.37803 40.3975 8.69803 40.3975 7.8447C40.3975 6.0047 39.9042 4.7247 38.9175 4.0047C37.9308 3.25803 36.4775 2.8847 34.5575 2.8847C33.9175 2.8847 33.2242 2.93803 32.4775 3.0447C31.7308 3.1247 31.0108 3.2447 30.3175 3.4047C29.6242 3.53803 28.9842 3.6847 28.3975 3.8447C27.8375 4.0047 27.4108 4.15136 27.1175 4.2847L26.0775 2.1647C26.5042 1.89803 27.0775 1.67136 27.7975 1.4847C28.5175 1.29803 29.2908 1.13803 30.1175 1.0047C30.9442 0.871363 31.7842 0.77803 32.6375 0.724698C33.4908 0.644697 34.2908 0.604697 35.0375 0.604697C36.0775 0.604697 37.0908 0.684697 38.0775 0.844698C39.0642 1.0047 39.9442 1.33803 40.7175 1.8447C41.5175 2.35136 42.1575 3.0847 42.6375 4.0447C43.1175 4.97803 43.3575 6.23136 43.3575 7.8047C43.3575 9.27136 43.1708 10.4447 42.7975 11.3247C42.4242 12.178 41.8375 12.8714 41.0375 13.4047C40.2375 13.938 39.1975 14.378 37.9175 14.7247C36.6375 15.0447 35.1042 15.418 33.3175 15.8447C32.4642 16.058 31.7175 16.258 31.0775 16.4447C30.4375 16.6314 29.9042 16.8714 29.4775 17.1647C29.0775 17.458 28.7708 17.8447 28.5575 18.3247C28.3708 18.8047 28.2775 19.4447 28.2775 20.2447V24.4447H43.3575V26.7647H25.2775Z" />
    <path fill-rule="evenodd" clip-rule="evenodd" d="M17.0463 3.86818L5.63306 25.3323L3.86719 24.3933L15.2805 2.9292L17.0463 3.86818Z" />
  </symbol>
  <symbol id="03" viewBox="0 0 43 28">
    <path
      d="M10.5613 24.9647C11.2546 24.9647 11.9079 24.9514 12.5212 24.9247C13.1613 24.8714 13.7479 24.7514 14.2812 24.5647C14.8413 24.3514 15.3346 24.018 15.7613 23.5647C16.2146 23.1114 16.6012 22.4847 16.9212 21.6847C17.2412 20.858 17.4813 19.818 17.6413 18.5647C17.8279 17.2847 17.9213 15.7247 17.9213 13.8847C17.9213 11.138 17.7212 9.01803 17.3212 7.5247C16.9479 6.0047 16.4279 4.89803 15.7613 4.2047C15.0946 3.51136 14.3079 3.11136 13.4013 3.0047C12.5213 2.87136 11.5746 2.8047 10.5613 2.8047C9.52125 2.8047 8.54792 2.87136 7.64125 3.0047C6.76125 3.11136 5.98792 3.51136 5.32125 4.2047C4.68125 4.89803 4.17458 6.0047 3.80125 7.5247C3.42792 9.01803 3.24125 11.138 3.24125 13.8847C3.24125 15.7247 3.32125 17.2847 3.48125 18.5647C3.66792 19.818 3.90792 20.858 4.20125 21.6847C4.52125 22.4847 4.89458 23.1114 5.32125 23.5647C5.77458 24.018 6.26792 24.3514 6.80125 24.5647C7.33458 24.7514 7.92125 24.8714 8.56125 24.9247C9.20125 24.9514 9.86792 24.9647 10.5613 24.9647ZM10.5613 27.2047C9.14792 27.2047 7.81458 27.058 6.56125 26.7647C5.30792 26.4447 4.21458 25.818 3.28125 24.8847C2.34792 23.9247 1.61458 22.578 1.08125 20.8447C0.547917 19.0847 0.28125 16.7647 0.28125 13.8847C0.28125 11.0047 0.547917 8.69803 1.08125 6.9647C1.61458 5.2047 2.34792 3.85803 3.28125 2.9247C4.21458 1.9647 5.30792 1.33803 6.56125 1.0447C7.81458 0.724698 9.14792 0.564697 10.5613 0.564697C12.0013 0.564697 13.3479 0.724698 14.6012 1.0447C15.8546 1.33803 16.9479 1.9647 17.8813 2.9247C18.8146 3.85803 19.5479 5.2047 20.0813 6.9647C20.6146 8.69803 20.8813 11.0047 20.8813 13.8847C20.8813 16.7647 20.6146 19.0847 20.0813 20.8447C19.5479 22.578 18.8146 23.9247 17.8813 24.8847C16.9479 25.818 15.8546 26.4447 14.6012 26.7647C13.3479 27.058 12.0013 27.2047 10.5613 27.2047Z" />
    <path
      d="M25.5575 23.5247C25.8508 23.658 26.2775 23.8047 26.8375 23.9647C27.4242 24.1247 28.0508 24.2847 28.7175 24.4447C29.4108 24.578 30.1308 24.698 30.8775 24.8047C31.6242 24.8847 32.3175 24.9247 32.9575 24.9247C33.9708 24.9247 34.8775 24.898 35.6775 24.8447C36.4775 24.7647 37.1575 24.578 37.7175 24.2847C38.2775 23.9914 38.7042 23.538 38.9975 22.9247C39.2908 22.2847 39.4375 21.418 39.4375 20.3247C39.4375 19.018 39.2908 18.018 38.9975 17.3247C38.7308 16.6047 38.3308 16.0714 37.7975 15.7247C37.2642 15.378 36.6108 15.178 35.8375 15.1247C35.0908 15.0447 34.2508 15.0047 33.3175 15.0047H27.9975V12.7247H33.3175C34.2508 12.7247 35.0908 12.6847 35.8375 12.6047C36.5842 12.498 37.2108 12.2714 37.7175 11.9247C38.2508 11.578 38.6508 11.058 38.9175 10.3647C39.2108 9.67136 39.3575 8.7247 39.3575 7.5247C39.3575 6.53803 39.2108 5.73803 38.9175 5.1247C38.6242 4.51136 38.1975 4.0447 37.6375 3.7247C37.1042 3.4047 36.4375 3.19137 35.6375 3.0847C34.8642 2.97803 33.9708 2.9247 32.9575 2.9247C32.3175 2.9247 31.6242 2.97803 30.8775 3.0847C30.1308 3.1647 29.4108 3.2847 28.7175 3.4447C28.0508 3.57803 27.4242 3.7247 26.8375 3.8847C26.2775 4.0447 25.8508 4.19136 25.5575 4.3247L24.4775 2.2047C24.9042 1.93803 25.4775 1.71136 26.1975 1.5247C26.9175 1.33803 27.6908 1.17803 28.5175 1.0447C29.3442 0.911365 30.1842 0.818031 31.0375 0.764697C31.9175 0.684697 32.7308 0.644696 33.4775 0.644696C34.9975 0.644696 36.3175 0.751363 37.4375 0.964697C38.5575 1.15136 39.4775 1.49803 40.1975 2.0047C40.9442 2.4847 41.4908 3.1647 41.8375 4.0447C42.2108 4.9247 42.3975 6.0447 42.3975 7.4047C42.3975 8.41803 42.3175 9.27136 42.1575 9.9647C41.9975 10.658 41.7708 11.2447 41.4775 11.7247C41.1842 12.2047 40.8242 12.618 40.3975 12.9647C39.9975 13.3114 39.5575 13.618 39.0775 13.8847C39.5575 14.1514 39.9975 14.458 40.3975 14.8047C40.8242 15.1247 41.1842 15.5247 41.4775 16.0047C41.7975 16.4847 42.0375 17.0847 42.1975 17.8047C42.3575 18.498 42.4375 19.338 42.4375 20.3247C42.4375 21.6847 42.2508 22.818 41.8775 23.7247C41.5308 24.6047 40.9842 25.3114 40.2375 25.8447C39.4908 26.3514 38.5575 26.698 37.4375 26.8847C36.3175 27.098 34.9975 27.2047 33.4775 27.2047C32.7308 27.2047 31.9175 27.1647 31.0375 27.0847C30.1842 27.0314 29.3442 26.938 28.5175 26.8047C27.6908 26.6714 26.9175 26.5114 26.1975 26.3247C25.4775 26.138 24.9042 25.9114 24.4775 25.6447L25.5575 23.5247Z" />
    <path fill-rule="evenodd" clip-rule="evenodd" d="M17.0463 3.86818L5.63306 25.3323L3.86719 24.3933L15.2805 2.9292L17.0463 3.86818Z" />
  </symbol>
  <symbol id="04" viewBox="0 0 45 28">
    <path
      d="M10.5613 24.9647C11.2546 24.9647 11.9079 24.9514 12.5212 24.9247C13.1613 24.8714 13.7479 24.7514 14.2812 24.5647C14.8413 24.3514 15.3346 24.018 15.7613 23.5647C16.2146 23.1114 16.6012 22.4847 16.9212 21.6847C17.2412 20.858 17.4813 19.818 17.6413 18.5647C17.8279 17.2847 17.9213 15.7247 17.9213 13.8847C17.9213 11.138 17.7212 9.01803 17.3212 7.5247C16.9479 6.0047 16.4279 4.89803 15.7613 4.2047C15.0946 3.51136 14.3079 3.11136 13.4013 3.0047C12.5213 2.87136 11.5746 2.8047 10.5613 2.8047C9.52125 2.8047 8.54792 2.87136 7.64125 3.0047C6.76125 3.11136 5.98792 3.51136 5.32125 4.2047C4.68125 4.89803 4.17458 6.0047 3.80125 7.5247C3.42792 9.01803 3.24125 11.138 3.24125 13.8847C3.24125 15.7247 3.32125 17.2847 3.48125 18.5647C3.66792 19.818 3.90792 20.858 4.20125 21.6847C4.52125 22.4847 4.89458 23.1114 5.32125 23.5647C5.77458 24.018 6.26792 24.3514 6.80125 24.5647C7.33458 24.7514 7.92125 24.8714 8.56125 24.9247C9.20125 24.9514 9.86792 24.9647 10.5613 24.9647ZM10.5613 27.2047C9.14792 27.2047 7.81458 27.058 6.56125 26.7647C5.30792 26.4447 4.21458 25.818 3.28125 24.8847C2.34792 23.9247 1.61458 22.578 1.08125 20.8447C0.547917 19.0847 0.28125 16.7647 0.28125 13.8847C0.28125 11.0047 0.547917 8.69803 1.08125 6.9647C1.61458 5.2047 2.34792 3.85803 3.28125 2.9247C4.21458 1.9647 5.30792 1.33803 6.56125 1.0447C7.81458 0.724698 9.14792 0.564697 10.5613 0.564697C12.0013 0.564697 13.3479 0.724698 14.6012 1.0447C15.8546 1.33803 16.9479 1.9647 17.8813 2.9247C18.8146 3.85803 19.5479 5.2047 20.0813 6.9647C20.6146 8.69803 20.8813 11.0047 20.8813 13.8847C20.8813 16.7647 20.6146 19.0847 20.0813 20.8447C19.5479 22.578 18.8146 23.9247 17.8813 24.8847C16.9479 25.818 15.8546 26.4447 14.6012 26.7647C13.3479 27.058 12.0013 27.2047 10.5613 27.2047Z" />
    <path d="M38.215 26.7647V21.4847H24.295V18.8047L34.535 1.0847H37.735L27.295 19.1647H38.215V12.3247H41.095V19.1647H44.455V21.4847H41.095V26.7647H38.215Z" />
    <path fill-rule="evenodd" clip-rule="evenodd" d="M17.0463 3.86818L5.63306 25.3323L3.86719 24.3933L15.2805 2.9292L17.0463 3.86818Z" />
  </symbol>
  <symbol id="05" viewBox="0 0 43 28">
    <path
      d="M10.5613 24.9647C11.2546 24.9647 11.9079 24.9514 12.5212 24.9247C13.1613 24.8714 13.7479 24.7514 14.2812 24.5647C14.8413 24.3514 15.3346 24.018 15.7613 23.5647C16.2146 23.1114 16.6012 22.4847 16.9212 21.6847C17.2412 20.858 17.4813 19.818 17.6413 18.5647C17.8279 17.2847 17.9213 15.7247 17.9213 13.8847C17.9213 11.138 17.7212 9.01803 17.3212 7.5247C16.9479 6.0047 16.4279 4.89803 15.7613 4.2047C15.0946 3.51136 14.3079 3.11136 13.4013 3.0047C12.5213 2.87136 11.5746 2.8047 10.5613 2.8047C9.52125 2.8047 8.54792 2.87136 7.64125 3.0047C6.76125 3.11136 5.98792 3.51136 5.32125 4.2047C4.68125 4.89803 4.17458 6.0047 3.80125 7.5247C3.42792 9.01803 3.24125 11.138 3.24125 13.8847C3.24125 15.7247 3.32125 17.2847 3.48125 18.5647C3.66792 19.818 3.90792 20.858 4.20125 21.6847C4.52125 22.4847 4.89458 23.1114 5.32125 23.5647C5.77458 24.018 6.26792 24.3514 6.80125 24.5647C7.33458 24.7514 7.92125 24.8714 8.56125 24.9247C9.20125 24.9514 9.86792 24.9647 10.5613 24.9647ZM10.5613 27.2047C9.14792 27.2047 7.81458 27.058 6.56125 26.7647C5.30792 26.4447 4.21458 25.818 3.28125 24.8847C2.34792 23.9247 1.61458 22.578 1.08125 20.8447C0.547917 19.0847 0.28125 16.7647 0.28125 13.8847C0.28125 11.0047 0.547917 8.69803 1.08125 6.9647C1.61458 5.2047 2.34792 3.85803 3.28125 2.9247C4.21458 1.9647 5.30792 1.33803 6.56125 1.0447C7.81458 0.724698 9.14792 0.564697 10.5613 0.564697C12.0013 0.564697 13.3479 0.724698 14.6012 1.0447C15.8546 1.33803 16.9479 1.9647 17.8813 2.9247C18.8146 3.85803 19.5479 5.2047 20.0813 6.9647C20.6146 8.69803 20.8813 11.0047 20.8813 13.8847C20.8813 16.7647 20.6146 19.0847 20.0813 20.8447C19.5479 22.578 18.8146 23.9247 17.8813 24.8847C16.9479 25.818 15.8546 26.4447 14.6012 26.7647C13.3479 27.058 12.0013 27.2047 10.5613 27.2047Z" />
    <path
      d="M26.1175 23.5247C26.4108 23.658 26.8375 23.8047 27.3975 23.9647C27.9842 24.1247 28.6108 24.2847 29.2775 24.4447C29.9708 24.578 30.6908 24.698 31.4375 24.8047C32.1842 24.8847 32.8775 24.9247 33.5175 24.9247C34.5308 24.9247 35.4242 24.858 36.1975 24.7247C36.9975 24.5647 37.6642 24.298 38.1975 23.9247C38.7308 23.5247 39.1308 22.978 39.3975 22.2847C39.6908 21.5914 39.8375 20.698 39.8375 19.6047C39.8375 18.298 39.7042 17.258 39.4375 16.4847C39.1708 15.6847 38.7842 15.0714 38.2775 14.6447C37.7708 14.218 37.1442 13.938 36.3975 13.8047C35.6508 13.6447 34.8108 13.5647 33.8775 13.5647C32.7842 13.5647 31.8375 13.618 31.0375 13.7247C30.2642 13.8314 29.6908 14.0847 29.3175 14.4847L26.3175 14.0847V1.0847H41.6375V3.4047H29.3175V11.9247C30.5175 11.498 32.0375 11.2847 33.8775 11.2847C36.9442 11.2847 39.1975 11.9914 40.6375 13.4047C42.1042 14.7914 42.8375 16.858 42.8375 19.6047C42.8375 22.3247 42.1308 24.2714 40.7175 25.4447C39.3042 26.618 37.0775 27.2047 34.0375 27.2047C33.2908 27.2047 32.4775 27.1647 31.5975 27.0847C30.7442 27.0314 29.9042 26.938 29.0775 26.8047C28.2508 26.6714 27.4775 26.5114 26.7575 26.3247C26.0375 26.138 25.4642 25.9114 25.0375 25.6447L26.1175 23.5247Z" />
    <path fill-rule="evenodd" clip-rule="evenodd" d="M17.0463 3.86818L5.63306 25.3323L3.86719 24.3933L15.2805 2.9292L17.0463 3.86818Z" />
  </symbol>
  <symbol id="06" viewBox="0 0 45 28">
    <path
      d="M10.5613 24.9647C11.2546 24.9647 11.9079 24.9514 12.5212 24.9247C13.1613 24.8714 13.7479 24.7514 14.2812 24.5647C14.8413 24.3514 15.3346 24.018 15.7613 23.5647C16.2146 23.1114 16.6012 22.4847 16.9212 21.6847C17.2412 20.858 17.4813 19.818 17.6413 18.5647C17.8279 17.2847 17.9213 15.7247 17.9213 13.8847C17.9213 11.138 17.7212 9.01803 17.3212 7.5247C16.9479 6.0047 16.4279 4.89803 15.7613 4.2047C15.0946 3.51136 14.3079 3.11136 13.4013 3.0047C12.5213 2.87136 11.5746 2.8047 10.5613 2.8047C9.52125 2.8047 8.54792 2.87136 7.64125 3.0047C6.76125 3.11136 5.98792 3.51136 5.32125 4.2047C4.68125 4.89803 4.17458 6.0047 3.80125 7.5247C3.42792 9.01803 3.24125 11.138 3.24125 13.8847C3.24125 15.7247 3.32125 17.2847 3.48125 18.5647C3.66792 19.818 3.90792 20.858 4.20125 21.6847C4.52125 22.4847 4.89458 23.1114 5.32125 23.5647C5.77458 24.018 6.26792 24.3514 6.80125 24.5647C7.33458 24.7514 7.92125 24.8714 8.56125 24.9247C9.20125 24.9514 9.86792 24.9647 10.5613 24.9647ZM10.5613 27.2047C9.14792 27.2047 7.81458 27.058 6.56125 26.7647C5.30792 26.4447 4.21458 25.818 3.28125 24.8847C2.34792 23.9247 1.61458 22.578 1.08125 20.8447C0.547917 19.0847 0.28125 16.7647 0.28125 13.8847C0.28125 11.0047 0.547917 8.69803 1.08125 6.9647C1.61458 5.2047 2.34792 3.85803 3.28125 2.9247C4.21458 1.9647 5.30792 1.33803 6.56125 1.0447C7.81458 0.724698 9.14792 0.564697 10.5613 0.564697C12.0013 0.564697 13.3479 0.724698 14.6012 1.0447C15.8546 1.33803 16.9479 1.9647 17.8813 2.9247C18.8146 3.85803 19.5479 5.2047 20.0813 6.9647C20.6146 8.69803 20.8813 11.0047 20.8813 13.8847C20.8813 16.7647 20.6146 19.0847 20.0813 20.8447C19.5479 22.578 18.8146 23.9247 17.8813 24.8847C16.9479 25.818 15.8546 26.4447 14.6012 26.7647C13.3479 27.058 12.0013 27.2047 10.5613 27.2047Z" />
    <path
      d="M42.4775 4.2447C42.1842 4.11136 41.7442 3.9647 41.1575 3.8047C40.5975 3.6447 39.9708 3.49803 39.2775 3.3647C38.6108 3.2047 37.9042 3.0847 37.1575 3.0047C36.4108 2.89803 35.7175 2.8447 35.0775 2.8447C34.0908 2.8447 33.1975 2.89803 32.3975 3.0047C31.5975 3.11136 30.9042 3.47136 30.3175 4.0847C29.7575 4.69803 29.3042 5.67136 28.9575 7.0047C28.6375 8.33803 28.4642 10.2447 28.4375 12.7247C29.2108 12.138 30.1442 11.7514 31.2375 11.5647C32.3575 11.3514 33.6375 11.2447 35.0775 11.2447C36.4908 11.2447 37.7575 11.3514 38.8775 11.5647C39.9975 11.7514 40.9442 12.138 41.7175 12.7247C42.5175 13.3114 43.1175 14.138 43.5175 15.2047C43.9442 16.2447 44.1575 17.618 44.1575 19.3247C44.1575 20.818 43.9708 22.0714 43.5975 23.0847C43.2242 24.098 42.6508 24.9114 41.8775 25.5247C41.1308 26.138 40.1842 26.5647 39.0375 26.8047C37.9175 27.0714 36.5975 27.2047 35.0775 27.2047C33.6375 27.2047 32.3308 27.058 31.1575 26.7647C29.9842 26.4447 28.9708 25.818 28.1175 24.8847C27.2908 23.9247 26.6375 22.578 26.1575 20.8447C25.7042 19.0847 25.4775 16.7647 25.4775 13.8847C25.4775 11.0047 25.7042 8.69803 26.1575 6.9647C26.6375 5.2047 27.2908 3.85803 28.1175 2.9247C28.9708 1.9647 29.9842 1.33803 31.1575 1.0447C32.3308 0.724698 33.6375 0.564697 35.0775 0.564697C35.8242 0.564697 36.5975 0.604698 37.3975 0.684698C38.2242 0.738031 39.0108 0.831364 39.7575 0.964697C40.5308 1.09803 41.2375 1.25803 41.8775 1.4447C42.5442 1.63136 43.1042 1.85803 43.5575 2.1247L42.4775 4.2447ZM28.6375 18.6847C28.8242 20.258 29.1042 21.4714 29.4775 22.3247C29.8508 23.1514 30.3042 23.7647 30.8375 24.1647C31.3975 24.5647 32.0242 24.7914 32.7175 24.8447C33.4375 24.898 34.2242 24.9247 35.0775 24.9247C36.0108 24.9247 36.8508 24.898 37.5975 24.8447C38.3442 24.7647 38.9708 24.5514 39.4775 24.2047C40.0108 23.858 40.4108 23.3114 40.6775 22.5647C40.9708 21.818 41.1175 20.738 41.1175 19.3247C41.1175 17.938 40.9575 16.858 40.6375 16.0847C40.3175 15.2847 39.8908 14.698 39.3575 14.3247C38.8242 13.9514 38.1842 13.7247 37.4375 13.6447C36.6908 13.5647 35.9042 13.5247 35.0775 13.5247C34.2775 13.5247 33.4908 13.5647 32.7175 13.6447C31.9708 13.698 31.3042 13.898 30.7175 14.2447C30.1308 14.5914 29.6508 15.1114 29.2775 15.8047C28.9042 16.498 28.6908 17.458 28.6375 18.6847Z" />
    <path fill-rule="evenodd" clip-rule="evenodd" d="M17.0463 3.86818L5.63306 25.3323L3.86719 24.3933L15.2805 2.9292L17.0463 3.86818Z" />
  </symbol>
  <symbol id="07" viewBox="0 0 41 28">
    <path
      d="M10.5613 24.9647C11.2546 24.9647 11.9079 24.9514 12.5212 24.9247C13.1613 24.8714 13.7479 24.7514 14.2812 24.5647C14.8413 24.3514 15.3346 24.018 15.7613 23.5647C16.2146 23.1114 16.6012 22.4847 16.9212 21.6847C17.2412 20.858 17.4813 19.818 17.6413 18.5647C17.8279 17.2847 17.9213 15.7247 17.9213 13.8847C17.9213 11.138 17.7212 9.01803 17.3212 7.5247C16.9479 6.0047 16.4279 4.89803 15.7613 4.2047C15.0946 3.51136 14.3079 3.11136 13.4013 3.0047C12.5213 2.87136 11.5746 2.8047 10.5613 2.8047C9.52125 2.8047 8.54792 2.87136 7.64125 3.0047C6.76125 3.11136 5.98792 3.51136 5.32125 4.2047C4.68125 4.89803 4.17458 6.0047 3.80125 7.5247C3.42792 9.01803 3.24125 11.138 3.24125 13.8847C3.24125 15.7247 3.32125 17.2847 3.48125 18.5647C3.66792 19.818 3.90792 20.858 4.20125 21.6847C4.52125 22.4847 4.89458 23.1114 5.32125 23.5647C5.77458 24.018 6.26792 24.3514 6.80125 24.5647C7.33458 24.7514 7.92125 24.8714 8.56125 24.9247C9.20125 24.9514 9.86792 24.9647 10.5613 24.9647ZM10.5613 27.2047C9.14792 27.2047 7.81458 27.058 6.56125 26.7647C5.30792 26.4447 4.21458 25.818 3.28125 24.8847C2.34792 23.9247 1.61458 22.578 1.08125 20.8447C0.547917 19.0847 0.28125 16.7647 0.28125 13.8847C0.28125 11.0047 0.547917 8.69803 1.08125 6.9647C1.61458 5.2047 2.34792 3.85803 3.28125 2.9247C4.21458 1.9647 5.30792 1.33803 6.56125 1.0447C7.81458 0.724698 9.14792 0.564697 10.5613 0.564697C12.0013 0.564697 13.3479 0.724698 14.6012 1.0447C15.8546 1.33803 16.9479 1.9647 17.8813 2.9247C18.8146 3.85803 19.5479 5.2047 20.0813 6.9647C20.6146 8.69803 20.8813 11.0047 20.8813 13.8847C20.8813 16.7647 20.6146 19.0847 20.0813 20.8447C19.5479 22.578 18.8146 23.9247 17.8813 24.8847C16.9479 25.818 15.8546 26.4447 14.6012 26.7647C13.3479 27.058 12.0013 27.2047 10.5613 27.2047Z" />
    <path d="M26.9259 26.7647L37.4459 3.4047H23.1659V1.0847H40.5259V3.4047L30.0459 26.7647H26.9259Z" />
    <path fill-rule="evenodd" clip-rule="evenodd" d="M17.0463 3.86818L5.63306 25.3323L3.86719 24.3933L15.2805 2.9292L17.0463 3.86818Z" />
  </symbol>
  <symbol id="arrow" viewBox="0 0 15 8">
    <path d="M0.046875 4.15091H13.834M13.834 4.15091L10.7585 7.22639M13.834 4.15091L10.7585 1.07544" />
  </symbol>
  <symbol id="down" viewBox="0 0 17 12">
    <path d="M15.8594 1.26134L8.1321 10.2613L0.859375 1.26134" stroke-width="1.5" />
  </symbol>
  <symbol id="logo" viewBox="0 0 313 70">
    <path
      d="M207.486 37.1903L207.676 34.5123C208.057 34.6794 208.627 34.6794 209.198 34.6794C211.861 34.6794 212.051 31.1644 212.051 21.1202H224.603V37.1903H220.8V23.7987H215.474C215.474 32.5036 215.094 37.3579 210.149 37.3579C209.198 37.525 208.247 37.3579 207.486 37.1903ZM228.977 21.2878H232.591V27.1466C232.591 28.8206 232.401 31.8338 232.401 33.3401L240.198 21.2873H244.192V37.3579H240.579V31.4991C240.579 29.8251 240.768 26.8119 240.768 25.3055L232.971 37.3579H228.977V21.2878H228.977ZM247.234 37.0227L247.615 34.1771C248.946 34.8465 250.657 35.0141 252.179 35.0141C253.891 35.0141 255.982 34.6794 255.982 32.6703C255.982 30.494 253.319 30.3265 251.608 30.3265C251.228 30.3265 250.848 30.3265 250.277 30.3265V27.8155C250.657 27.8155 251.038 27.8155 251.228 27.8155C252.939 27.8155 255.792 27.4808 255.792 25.4717C255.792 23.7978 253.89 23.4631 252.369 23.4631C251.038 23.4631 249.136 23.7978 247.994 24.1325L247.614 21.6215C249.136 21.2868 251.228 20.9521 252.939 20.9521C256.553 20.9521 259.406 22.1238 259.406 25.137C259.406 26.811 258.074 28.1502 255.982 28.652C258.265 28.9867 259.786 30.6611 259.786 32.5022C259.786 36.0177 256.743 37.3565 252.559 37.3565C250.658 37.6926 248.756 37.3579 247.234 37.0227ZM263.4 21.2878H267.013V27.1466C267.013 28.8206 266.824 31.8338 266.824 33.3401L274.621 21.2873H278.615V37.3579H275.001V31.4991C275.001 29.8251 275.191 26.8119 275.191 25.3055L267.394 37.3579H263.4V21.2878ZM283.179 21.2878H286.982V27.6489H294.209V21.2878H298.013V37.3579H294.209V30.3269H286.983V37.3579H283.179V21.2878H283.179ZM302.197 21.2878H312.847V23.9663H305.811V37.3579H302.007V21.2878H302.197ZM165.076 61.4626H173.254C176.297 61.4626 178.198 60.7932 179.53 59.2864C180.1 58.617 181.051 57.2777 181.051 54.7668C181.051 52.2559 180.1 50.5814 178.198 49.2427C177.057 48.5733 175.536 48.071 173.063 48.071H164.885V61.4626H165.076ZM154.236 69.4981V21.2878H189.99L186.947 29.3228H165.076V40.0359H174.015C181.052 40.0359 184.856 41.5428 187.328 43.3838C189.23 44.8907 192.653 48.2381 192.653 54.7673C192.653 61.2955 189.23 64.811 186.187 66.6525C182.764 68.6612 179.15 69.3305 171.923 69.3305H154.237V69.4981H154.236ZM122.665 69.4981V29.3228H106.88V21.2878H151.002L147.959 29.3228H133.886V69.4981H122.665ZM78.5433 40.5382H84.6289C86.5313 40.5382 87.4816 40.5382 88.4325 40.3711C90.905 39.7017 92.6164 37.6926 92.6164 35.0146C92.6164 31.8342 90.905 30.3274 88.4325 29.658C87.4816 29.3233 86.5307 29.1557 84.4385 29.1557H78.7331V40.5387H78.5433V40.5382ZM78.7337 48.9084V61.6302H86.3409C88.6234 61.6302 90.7156 61.4631 92.2367 60.2909C93.7577 59.1188 94.3283 57.4453 94.3283 55.4366C94.3283 53.9303 93.7582 52.4239 92.9972 51.2518C91.4756 49.5774 89.384 49.0755 85.9606 49.0755H78.7337V48.9084ZM96.2306 43.8866C98.3223 44.7231 100.225 45.8952 101.365 46.5646C104.599 48.9084 105.93 51.9212 105.93 55.9389C105.93 62.4672 101.936 67.3219 95.4696 68.8283C93.5678 69.3305 91.4756 69.4981 87.4816 69.4981H67.7031V21.2878H85.2001C88.8133 21.2878 91.2858 21.4554 93.3779 21.9572C99.6535 23.464 103.838 27.3137 103.838 33.3401C103.838 36.5204 102.507 39.3665 100.415 41.2081C99.6535 42.0446 98.3223 43.0491 96.2306 43.8866Z"
      fill="white" />
    <path d="M56.4833 7.6064H10.0791L13.5025 0.241211H59.9067L56.4833 7.6064ZM54.7719 11.2895H8.3677L4.94436 18.6547H51.3491L54.7719 11.2895ZM49.827 22.1702H3.42281L0 29.5354H46.4042L49.827 22.1702Z"
      fill="#08267F" />
  </symbol>
  <symbol id="ok" viewBox="0 0 18 29">
    <path
      d="M8.99953 4.99805C10.6636 4.99805 12.0171 6.35156 12.0171 8.01563C12.0171 9.67383 10.6636 11.0273 8.99953 11.0273C7.33547 11.0273 5.98195 9.67383 5.98195 8.01563C5.98195 6.35156 7.33547 4.99805 8.99953 4.99805ZM8.99953 15.5098C13.1362 15.5098 16.4937 12.1523 16.4937 8.01563C16.4937 3.87891 13.1362 0.515625 8.99953 0.515625C4.86281 0.515625 1.49953 3.87891 1.49953 8.01563C1.49953 12.1465 4.86281 15.5098 8.99953 15.5098ZM11.9468 21.2402C13.4292 20.9063 14.8589 20.3203 16.1773 19.4883C17.1734 18.8613 17.4722 17.543 16.8452 16.5469C16.2183 15.5508 14.8999 15.2461 13.9038 15.8789C10.9155 17.7539 7.07766 17.7539 4.09523 15.8789C3.09328 15.2461 1.77492 15.5508 1.14797 16.5469C0.521015 17.543 0.819844 18.8613 1.8218 19.4883C3.1343 20.3203 4.56984 20.9063 6.05227 21.2402L1.97414 25.3184C1.14211 26.1504 1.14211 27.5039 1.98 28.3359C2.39602 28.752 2.94094 28.9629 3.48586 28.9629C4.03078 28.9629 4.58156 28.752 4.99758 28.3359L8.99953 24.334L13.0073 28.3359C13.8394 29.168 15.187 29.168 16.0249 28.3359C16.8569 27.5039 16.8569 26.1504 16.0249 25.3184L11.9468 21.2402Z" />
  </symbol>
  <symbol id="vk" viewBox="0 0 30 31">
    <path
      d="M15 0.498047C6.7155 0.498047 0 7.21355 0 15.498C0 23.7825 6.7155 30.498 15 30.498C23.2845 30.498 30 23.7825 30 15.498C30 7.21355 23.2845 0.498047 15 0.498047ZM23.2725 21.498H21.309C20.565 21.498 20.3295 20.7615 19.032 19.248C17.907 17.9355 17.325 17.748 17.0385 17.748C16.6365 17.748 16.5 17.847 16.5 18.4485V20.6775C16.5 21.177 16.371 21.498 15.1125 21.498C13.035 21.498 10.6875 20.091 8.907 17.6535C6.45 14.292 6 11.3685 6 10.8285C6 10.5285 6.0945 10.248 6.6675 10.248H8.649C9.1455 10.248 9.336 10.4685 9.5265 11.049C10.407 13.998 11.7195 16.248 12.387 16.248C12.6345 16.248 12.75 16.128 12.75 15.468V12.75C12.6735 11.349 12 11.229 12 10.728C12 10.4865 12.159 10.248 12.465 10.248H15.951C16.371 10.248 16.5 10.488 16.5 11.0085V14.898C16.5 15.3375 16.836 15.498 16.968 15.498C17.2155 15.498 17.448 15.51 17.9055 15.0285C19.3155 13.3665 20.5395 10.848 20.5395 10.848C20.6745 10.548 20.9025 10.248 21.399 10.248H23.3625C23.802 10.248 23.988 10.4445 24 10.7175C24.0045 10.812 23.988 10.917 23.9535 11.0295C23.706 12.2295 21.168 15.7935 21.1875 15.7935C21.0795 15.978 21.0075 16.11 21 16.2495C20.9925 16.3815 21.0465 16.5195 21.1875 16.7145C21.396 17.0145 21.852 17.5665 22.3125 18.1245C23.145 19.131 23.8125 20.187 23.958 20.619C23.9895 20.736 24.003 20.8425 24 20.937C23.9895 21.306 23.727 21.498 23.2725 21.498Z" />
  </symbol>
</svg>
